<svg xmlns="http://www.w3.org/2000/svg" viewBox="0 0 512 512" width="512" height="512" fill="none">
  <path fill-rule="evenodd" clip-rule="evenodd" d="
    M 256 36
    C 152 36 68 120 68 224
    C 68 340 216 456 244.6 477.8
    C 251.3 483 260.7 483 267.4 477.8
    C 296 456 444 340 444 224
    C 444 120 360 36 256 36
    Z
    M 212 152
    C 212 127.7 231.7 108 256 108
    C 280.3 108 300 127.7 300 152
    L 300 176
    L 276 176
    L 276 152
    C 276 141 267 132 256 132
    C 245 132 236 141 236 152
    L 236 176
    L 212 176
    Z
    M 172 192
    C 172 178.7 182.7 168 196 168
    L 316 168
    C 329.3 168 340 178.7 340 192
    L 340 288
    C 340 314.5 318.5 336 292 336
    L 220 336
    C 193.5 336 172 314.5 172 288
    Z
    M 256 226
    A 26 26 0 1 0 256 278
    A 26 26 0 1 0 256 226
    Z
  " fill="#FFFFFF"/>
</svg>